<svg width="24" height="24" viewBox="0 0 24 24" fill="none" xmlns="http://www.w3.org/2000/svg">
<path d="M6.64289 2.14282C5.10438 2.14282 3.85718 3.39003 3.85718 4.92854V19.0714C3.85718 20.6099 5.10438 21.8571 6.64289 21.8571H19.5C19.8551 21.8571 20.1429 21.5693 20.1429 21.2142C20.1429 20.8592 19.8551 20.5714 19.5 20.5714H6.64289C5.88722 20.5714 5.26206 20.0126 5.15808 19.2857H19.5C19.8551 19.2857 20.1429 18.9978 20.1429 18.6428V4.92854C20.1429 3.39003 18.8957 2.14282 17.3572 2.14282H6.64289ZM18.8572 18H5.14289V4.92854C5.14289 4.10011 5.81446 3.42854 6.64289 3.42854H17.3572C18.1856 3.42854 18.8572 4.10011 18.8572 4.92854V18ZM7.92861 5.14282C7.33687 5.14282 6.85718 5.62251 6.85718 6.21425V7.92854C6.85718 8.52027 7.33687 8.99996 7.92861 8.99996H16.0715C16.6632 8.99996 17.1429 8.52027 17.1429 7.92854V6.21425C17.1429 5.62251 16.6632 5.14282 16.0715 5.14282H7.92861ZM8.14289 7.71425V6.42854H15.8572V7.71425H8.14289Z" fill="#DCEBF0"/>
</svg>
