<svg width="24" height="24" viewBox="0 0 24 24" fill="none" xmlns="http://www.w3.org/2000/svg">
<path d="M14.9979 5C18.8639 5 21.9979 8.13401 21.9979 12C21.9979 15.7855 18.9931 18.8691 15.2385 18.9959L14.9979 19H9.00207C5.13607 19 2.00208 15.866 2.00208 12C2.00208 8.21455 5.00686 5.1309 8.76143 5.00406L9.00207 5H14.9979ZM14.9979 6.5H9.00207C5.9645 6.5 3.50208 8.96243 3.50208 12C3.50208 14.9635 5.84586 17.3795 8.78087 17.4956L9.00207 17.5H14.9979C18.0354 17.5 20.4979 15.0376 20.4979 12C20.4979 9.03652 18.1541 6.62046 15.2191 6.50437L14.9979 6.5ZM7.99996 9C8.41417 9 8.74996 9.33579 8.74996 9.75L8.74908 11.248L10.25 11.2487C10.6642 11.2487 11 11.5845 11 11.9987C11 12.413 10.6642 12.7487 10.25 12.7487L8.74908 12.748L8.74996 14.25C8.74996 14.6642 8.41417 15 7.99996 15C7.58575 15 7.24996 14.6642 7.24996 14.25L7.24908 12.748L5.74996 12.7487C5.33575 12.7487 4.99996 12.413 4.99996 11.9987C4.99996 11.5845 5.33575 11.2487 5.74996 11.2487L7.24908 11.248L7.24996 9.75C7.24996 9.33579 7.58575 9 7.99996 9ZM14.75 12.5C15.4403 12.5 16 13.0596 16 13.75C16 14.4404 15.4403 15 14.75 15C14.0596 15 13.5 14.4404 13.5 13.75C13.5 13.0596 14.0596 12.5 14.75 12.5ZM16.75 9C17.4403 9 18 9.55964 18 10.25C18 10.9404 17.4403 11.5 16.75 11.5C16.0596 11.5 15.5 10.9404 15.5 10.25C15.5 9.55964 16.0596 9 16.75 9Z" fill="#DCEBF0"/>
</svg>
