<svg width="24" height="24" viewBox="0 0 24 24" fill="none" xmlns="http://www.w3.org/2000/svg">
<path d="M10.9781 3.10134C11.816 2.39476 13.0412 2.39476 13.8791 3.10135L20.6291 8.79346C21.136 9.22098 21.4286 9.85036 21.4286 10.5135V19.8234C21.4286 20.7899 20.6451 21.5734 19.6786 21.5734H16.1786C15.2121 21.5734 14.4286 20.7899 14.4286 19.8234V14.8163C14.4286 14.6783 14.3167 14.5663 14.1786 14.5663H10.6786C10.5405 14.5663 10.4286 14.6783 10.4286 14.8163V19.8234C10.4286 20.7899 9.64509 21.5734 8.67859 21.5734H5.17859C4.21209 21.5734 3.42859 20.7899 3.42859 19.8234V10.5135C3.42859 9.85036 3.72114 9.22098 4.22811 8.79346L10.9781 3.10134ZM12.9121 4.24805C12.6328 4.01252 12.2244 4.01252 11.9451 4.24805L5.1951 9.94017C5.02611 10.0827 4.92859 10.2925 4.92859 10.5135V19.8234C4.92859 19.9615 5.04052 20.0734 5.17859 20.0734H8.67859C8.81666 20.0734 8.92858 19.9615 8.92858 19.8234V14.8163C8.92858 13.8498 9.71209 13.0663 10.6786 13.0663H14.1786C15.1451 13.0663 15.9286 13.8498 15.9286 14.8163V19.8234C15.9286 19.9615 16.0405 20.0734 16.1786 20.0734H19.6786C19.8167 20.0734 19.9286 19.9615 19.9286 19.8234V10.5135C19.9286 10.2925 19.8311 10.0827 19.6621 9.94017L12.9121 4.24805Z" fill="#DCEBF0"/>
</svg>
