<svg width="24" height="24" viewBox="0 0 24 24" fill="none" xmlns="http://www.w3.org/2000/svg">
<path d="M6.75 4.00149H10.2142C10.6284 4.00149 10.9642 4.33728 10.9642 4.75149C10.9642 5.13119 10.682 5.44498 10.3159 5.49464L10.2142 5.50149H6.75C5.55914 5.50149 4.58436 6.42665 4.50519 7.59744L4.5 7.75149V17.2515C4.5 18.4424 5.42516 19.4172 6.59595 19.4964L6.75 19.5015H16.2507C17.4416 19.5015 18.4163 18.5764 18.4955 17.4056L18.5007 17.2515V16.7538C18.5007 16.3395 18.8365 16.0038 19.2507 16.0038C19.6304 16.0038 19.9442 16.2859 19.9939 16.652L20.0007 16.7538V17.2515C20.0007 19.2558 18.4283 20.8928 16.4499 20.9963L16.2507 21.0015H6.75C4.74574 21.0015 3.10873 19.4292 3.0052 17.4507L3 17.2515V7.75149C3 5.74723 4.57236 4.11022 6.55084 4.00669L6.75 4.00149ZM14.504 6.5458V3.75149C14.504 3.12752 15.2107 2.79144 15.6909 3.14129L15.7731 3.21023L21.7677 8.96023C22.0475 9.22858 22.073 9.6596 21.8441 9.95756L21.7678 10.0427L15.7732 15.7946C15.3229 16.2266 14.591 15.9492 14.5111 15.3604L14.504 15.2534V12.4515L14.1832 12.4453C11.5257 12.4374 9.25414 13.5285 7.31837 15.7465C6.82275 16.3144 5.89309 15.8784 6.01282 15.1343C6.83981 9.99383 9.61189 7.08977 14.202 6.57592L14.504 6.5458Z" fill="currentColor"/>
</svg>
