<svg width="24" height="24" viewBox="0 0 24 24" fill="none" xmlns="http://www.w3.org/2000/svg">
<path d="M17.7506 14.9953C18.9927 14.9953 19.9995 16.0021 19.9995 17.2442V17.8196C19.9995 18.7139 19.6799 19.5787 19.0984 20.2581C17.529 22.0916 15.1418 22.9964 11.9965 22.9964C8.85059 22.9964 6.46458 22.0913 4.89828 20.257C4.31851 19.5781 4 18.7146 4 17.8218V17.2442C4 16.0021 5.00685 14.9953 6.24887 14.9953H17.7506ZM17.7506 16.4953H6.24887C5.83528 16.4953 5.5 16.8306 5.5 17.2442V17.8218C5.5 18.3575 5.69111 18.8756 6.03896 19.2829C7.29227 20.7506 9.25815 21.4964 11.9965 21.4964C14.7348 21.4964 16.7024 20.7506 17.9588 19.2827C18.3078 18.875 18.4995 18.3561 18.4995 17.8196V17.2442C18.4995 16.8306 18.1642 16.4953 17.7506 16.4953ZM11.9965 3C14.7579 3 16.9965 5.23858 16.9965 8C16.9965 10.7614 14.7579 13 11.9965 13C9.23503 13 6.99645 10.7614 6.99645 8C6.99645 5.23858 9.23503 3 11.9965 3ZM11.9965 4.5C10.0635 4.5 8.49645 6.06701 8.49645 8C8.49645 9.933 10.0635 11.5 11.9965 11.5C13.9295 11.5 15.4965 9.933 15.4965 8C15.4965 6.06701 13.9295 4.5 11.9965 4.5Z" fill="currentColor"/>
</svg>
