<svg width="58" height="55" viewBox="0 0 58 55" fill="none" xmlns="http://www.w3.org/2000/svg">
<path d="M24.1668 28.625C24.0039 28.0787 23.9167 27.5021 23.9167 26.9062C23.9167 26.3104 24.0039 25.7338 24.1668 25.1875H7.25242C7.08685 25.8546 7 26.4415 7 26.9062C7 27.371 7.08685 27.9579 7.25242 28.625H24.1668ZM30.5611 42.375H17.7021C21.0447 44.4134 25.2857 45.8123 30.5611 45.8125H30.5654C39.364 45.8125 45.2856 41.9219 48.9603 37.6626C50.7857 35.5472 52.0614 33.3392 52.8848 31.4596C53.682 29.6395 54.1279 27.959 54.1279 26.9062C54.1279 25.8535 53.682 24.173 52.8848 22.3529C52.0614 20.4733 50.7857 18.2654 48.9603 16.1499C45.2856 11.8907 39.364 8 30.5654 8H30.5625C25.2872 8.00025 21.0447 9.39915 17.7021 11.4375H30.5611H30.5654C38.0793 11.4375 43.033 14.7083 46.1548 18.3267C47.7281 20.15 48.8311 22.0599 49.5372 23.6716C50.2692 25.3426 50.5029 26.5267 50.5029 26.9062C50.5029 27.2858 50.2692 28.4699 49.5372 30.1409C48.8311 31.7527 47.7281 33.6625 46.1548 35.4858C43.033 39.1041 38.0793 42.375 30.5654 42.375H30.5611ZM14.5751 13.7292C13.6843 14.5048 12.8833 15.3203 12.1675 16.1499C11.8766 16.4871 11.5997 16.8265 11.3363 17.1667H30.5611V13.7292H14.5751ZM30.5611 19.4583H9.75681C9.1403 20.468 8.63935 21.4484 8.24316 22.3529C8.16319 22.5354 8.08675 22.7166 8.01396 22.8958H25.4357C26.6548 21.4962 28.4987 20.6042 30.5625 20.6042C34.2329 20.6042 37.2083 23.4257 37.2083 26.9062C37.2083 30.3868 34.2329 33.2083 30.5625 33.2083C28.4987 33.2083 26.6548 32.3164 25.4357 30.9167H8.01396C8.08675 31.0959 8.16319 31.2771 8.24316 31.4596C8.63935 32.3641 9.1403 33.3445 9.75681 34.3542H30.5611V36.6458C36.2335 36.6458 40.8333 32.2853 40.8333 26.9062C40.8333 21.5277 36.2327 17.1674 30.5611 17.1667V19.4583ZM30.5611 36.6458H11.3363C11.5997 36.9859 11.8766 37.3255 12.1675 37.6626C12.8833 38.4922 13.6843 39.3078 14.5751 40.0833H30.5611V36.6458Z" fill="#7A9EC0"/>
<path d="M17.1668 28.7732C17.0039 28.2269 16.9167 27.6503 16.9167 27.0544C16.9167 26.4586 17.0039 25.882 17.1668 25.3357H0.252421C0.086855 26.0028 0 26.5897 0 27.0544C0 27.5192 0.086855 28.1061 0.252421 28.7732H17.1668ZM23.5611 42.5232H10.7021C14.0447 44.5616 18.2857 45.9605 23.5611 45.9607H23.5654C32.364 45.9607 38.2856 42.0701 41.9603 37.8108C43.7857 35.6954 45.0614 33.4874 45.8848 31.6078C46.682 29.7877 47.1279 28.1072 47.1279 27.0544C47.1279 26.0017 46.682 24.3212 45.8848 22.5011C45.0614 20.6215 43.7857 18.4136 41.9603 16.2981C38.2856 12.0389 32.364 8.14819 23.5654 8.14819H23.5625C18.2872 8.14845 14.0447 9.54735 10.7021 11.5857H23.5611H23.5654C31.0793 11.5857 36.033 14.8565 39.1548 18.4749C40.7281 20.2982 41.8311 22.2081 42.5372 23.8198C43.2692 25.4908 43.5029 26.6749 43.5029 27.0544C43.5029 27.4339 43.2692 28.618 42.5372 30.2891C41.8311 31.9009 40.7281 33.8107 39.1548 35.634C36.033 39.2523 31.0793 42.5232 23.5654 42.5232H23.5611ZM7.57514 13.8774C6.68426 14.653 5.88328 15.4685 5.16751 16.2981C4.87662 16.6352 4.59969 16.9747 4.33632 17.3149H23.5611V13.8774H7.57514ZM23.5611 19.6065H2.75681C2.1403 20.6162 1.63935 21.5966 1.24316 22.5011C1.16319 22.6836 1.08675 22.8648 1.01396 23.044H18.4357C19.6548 21.6444 21.4987 20.7524 23.5625 20.7524C27.2329 20.7524 30.2083 23.5739 30.2083 27.0544C30.2083 30.535 27.2329 33.3565 23.5625 33.3565C21.4987 33.3565 19.6548 32.4646 18.4357 31.0649H1.01396C1.08675 31.2441 1.16319 31.4253 1.24316 31.6078C1.63935 32.5123 2.1403 33.4927 2.75681 34.5024H23.5611V36.794C29.2335 36.794 33.8333 32.4334 33.8333 27.0544C33.8333 21.6759 29.2327 17.3156 23.5611 17.3149V19.6065ZM23.5611 36.794H4.33632C4.59969 37.1341 4.87662 37.4737 5.16751 37.8108C5.88328 38.6404 6.68426 39.456 7.57514 40.2315H23.5611V36.794Z" fill="white"/>
</svg>
